<svg xmlns="http://www.w3.org/2000/svg" xmlns:xlink="http://www.w3.org/1999/xlink" width="500" zoomAndPan="magnify" viewBox="0 0 375 374.999991" height="500" preserveAspectRatio="xMidYMid meet" version="1.0"><defs><g/><clipPath id="b0e4ce4034"><path d="M 223.347656 208.597656 L 252.40625 208.597656 L 252.40625 265.597656 L 223.347656 265.597656 Z M 223.347656 208.597656 " clip-rule="nonzero"/></clipPath></defs><rect x="-37.5" width="450" fill="#ffffff" y="-37.499999" height="449.999989" fill-opacity="1"/><rect x="-37.5" width="450" fill="#ffffff" y="-37.499999" height="449.999989" fill-opacity="1"/><rect x="-37.5" width="450" fill="#ffffff" y="-37.499999" height="449.999989" fill-opacity="1"/><g fill="#000000" fill-opacity="1"><g transform="translate(113.068429, 260.624983)"><g><path d="M 17.71875 0 L 17.71875 -146.265625 L 35.421875 -146.265625 L 35.421875 -81.140625 L 113.421875 -81.140625 L 113.421875 -146.265625 L 131.125 -146.265625 L 131.125 0 L 113.421875 0 L 113.421875 -65.421875 L 35.421875 -65.421875 L 35.421875 0 Z M 17.71875 0 "/></g></g></g><g clip-path="url(#b0e4ce4034)"><path fill="#ffffff" d="M 223.347656 208.597656 L 252.511719 208.597656 L 252.511719 265.539062 L 223.347656 265.539062 Z M 223.347656 208.597656 " fill-opacity="1" fill-rule="nonzero"/></g><g fill="#000000" fill-opacity="1"><g transform="translate(152.297572, 233.346839)"><g><path d="M 15.6875 -15.140625 L 15.6875 0 L 12.1875 0 L 12.1875 -6.203125 L 5.296875 -6.203125 L 5.296875 0 L 1.796875 0 L 1.796875 -15.140625 L 5.296875 -15.140625 L 5.296875 -9.171875 L 12.1875 -9.171875 L 12.1875 -15.140625 Z M 15.6875 -15.140625 "/></g></g></g><g fill="#000000" fill-opacity="1"><g transform="translate(177.136067, 233.346839)"><g><path d="M 9.125 0.265625 C 7.5625 0.265625 6.144531 -0.0703125 4.875 -0.75 C 3.613281 -1.4375 2.625 -2.375 1.90625 -3.5625 C 1.195312 -4.75 0.84375 -6.085938 0.84375 -7.578125 C 0.84375 -9.054688 1.195312 -10.390625 1.90625 -11.578125 C 2.625 -12.773438 3.613281 -13.710938 4.875 -14.390625 C 6.144531 -15.066406 7.5625 -15.40625 9.125 -15.40625 C 10.695312 -15.40625 12.109375 -15.066406 13.359375 -14.390625 C 14.617188 -13.710938 15.609375 -12.773438 16.328125 -11.578125 C 17.054688 -10.390625 17.421875 -9.054688 17.421875 -7.578125 C 17.421875 -6.085938 17.054688 -4.75 16.328125 -3.5625 C 15.609375 -2.375 14.617188 -1.4375 13.359375 -0.75 C 12.109375 -0.0703125 10.695312 0.265625 9.125 0.265625 Z M 9.125 -2.734375 C 10.019531 -2.734375 10.828125 -2.9375 11.546875 -3.34375 C 12.273438 -3.75 12.84375 -4.320312 13.25 -5.0625 C 13.664062 -5.800781 13.875 -6.640625 13.875 -7.578125 C 13.875 -8.515625 13.664062 -9.347656 13.25 -10.078125 C 12.84375 -10.816406 12.273438 -11.390625 11.546875 -11.796875 C 10.828125 -12.210938 10.019531 -12.421875 9.125 -12.421875 C 8.238281 -12.421875 7.429688 -12.210938 6.703125 -11.796875 C 5.984375 -11.390625 5.414062 -10.816406 5 -10.078125 C 4.59375 -9.347656 4.390625 -8.515625 4.390625 -7.578125 C 4.390625 -6.640625 4.59375 -5.800781 5 -5.0625 C 5.414062 -4.320312 5.984375 -3.75 6.703125 -3.34375 C 7.429688 -2.9375 8.238281 -2.734375 9.125 -2.734375 Z M 9.125 -2.734375 "/></g></g></g><g fill="#000000" fill-opacity="1"><g transform="translate(202.753345, 233.346839)"><g><path d="M 15.578125 0 L 15.5625 -9.09375 L 11.109375 -1.59375 L 9.515625 -1.59375 L 5.078125 -8.890625 L 5.078125 0 L 1.796875 0 L 1.796875 -15.140625 L 4.703125 -15.140625 L 10.359375 -5.734375 L 15.953125 -15.140625 L 18.828125 -15.140625 L 18.875 0 Z M 15.578125 0 "/></g></g></g><g fill="#000000" fill-opacity="1"><g transform="translate(230.771856, 233.346839)"><g><path d="M 13.53125 -2.8125 L 13.53125 0 L 1.796875 0 L 1.796875 -15.140625 L 13.25 -15.140625 L 13.25 -12.328125 L 5.28125 -12.328125 L 5.28125 -9.046875 L 12.3125 -9.046875 L 12.3125 -6.3125 L 5.28125 -6.3125 L 5.28125 -2.8125 Z M 13.53125 -2.8125 "/></g></g></g><g fill="#000000" fill-opacity="1"><g transform="translate(152.297572, 259.596837)"><g><path d="M 15.6875 -15.140625 L 15.6875 0 L 12.1875 0 L 12.1875 -6.203125 L 5.296875 -6.203125 L 5.296875 0 L 1.796875 0 L 1.796875 -15.140625 L 5.296875 -15.140625 L 5.296875 -9.171875 L 12.1875 -9.171875 L 12.1875 -15.140625 Z M 15.6875 -15.140625 "/></g></g></g><g fill="#000000" fill-opacity="1"><g transform="translate(177.136067, 259.596837)"><g><path d="M 8.53125 0.265625 C 6.363281 0.265625 4.675781 -0.332031 3.46875 -1.53125 C 2.269531 -2.726562 1.671875 -4.441406 1.671875 -6.671875 L 1.671875 -15.140625 L 5.171875 -15.140625 L 5.171875 -6.796875 C 5.171875 -4.085938 6.296875 -2.734375 8.546875 -2.734375 C 9.640625 -2.734375 10.472656 -3.0625 11.046875 -3.71875 C 11.628906 -4.375 11.921875 -5.398438 11.921875 -6.796875 L 11.921875 -15.140625 L 15.390625 -15.140625 L 15.390625 -6.671875 C 15.390625 -4.441406 14.785156 -2.726562 13.578125 -1.53125 C 12.367188 -0.332031 10.6875 0.265625 8.53125 0.265625 Z M 8.53125 0.265625 "/></g></g></g><g fill="#000000" fill-opacity="1"><g transform="translate(201.541907, 259.596837)"><g><path d="M 12.921875 -7.875 C 13.785156 -7.601562 14.460938 -7.144531 14.953125 -6.5 C 15.441406 -5.863281 15.6875 -5.078125 15.6875 -4.140625 C 15.6875 -2.804688 15.171875 -1.78125 14.140625 -1.0625 C 13.109375 -0.351562 11.601562 0 9.625 0 L 1.796875 0 L 1.796875 -15.140625 L 9.203125 -15.140625 C 11.046875 -15.140625 12.460938 -14.785156 13.453125 -14.078125 C 14.441406 -13.378906 14.9375 -12.421875 14.9375 -11.203125 C 14.9375 -10.472656 14.757812 -9.816406 14.40625 -9.234375 C 14.050781 -8.660156 13.554688 -8.207031 12.921875 -7.875 Z M 5.28125 -12.515625 L 5.28125 -8.9375 L 8.765625 -8.9375 C 9.628906 -8.9375 10.285156 -9.085938 10.734375 -9.390625 C 11.179688 -9.691406 11.40625 -10.140625 11.40625 -10.734375 C 11.40625 -11.328125 11.179688 -11.769531 10.734375 -12.0625 C 10.285156 -12.363281 9.628906 -12.515625 8.765625 -12.515625 Z M 9.375 -2.640625 C 10.289062 -2.640625 10.984375 -2.789062 11.453125 -3.09375 C 11.921875 -3.394531 12.15625 -3.863281 12.15625 -4.5 C 12.15625 -5.757812 11.226562 -6.390625 9.375 -6.390625 L 5.28125 -6.390625 L 5.28125 -2.640625 Z M 9.375 -2.640625 "/></g></g></g></svg>