<svg xmlns="http://www.w3.org/2000/svg" xmlns:xlink="http://www.w3.org/1999/xlink" width="500" zoomAndPan="magnify" viewBox="0 0 375 374.999991" height="500" preserveAspectRatio="xMidYMid meet" version="1.0"><defs><g/><clipPath id="78a800599e"><path d="M 244.953125 226.671875 L 327 226.671875 L 327 365.550781 L 244.953125 365.550781 Z M 244.953125 226.671875 " clip-rule="nonzero"/></clipPath></defs><rect x="-37.5" width="450" fill="#ffffff" y="-37.499999" height="449.999989" fill-opacity="1"/><rect x="-37.5" width="450" fill="#ffffff" y="-37.499999" height="449.999989" fill-opacity="1"/><rect x="-37.5" width="450" fill="#ffffff" y="-37.499999" height="449.999989" fill-opacity="1"/><g fill="#000000" fill-opacity="1"><g transform="translate(28.197177, 344.006443)"><g><path d="M 37.90625 0 L 37.90625 -313.0625 L 75.8125 -313.0625 L 75.8125 -173.65625 L 242.734375 -173.65625 L 242.734375 -313.0625 L 280.65625 -313.0625 L 280.65625 0 L 242.734375 0 L 242.734375 -140.015625 L 75.8125 -140.015625 L 75.8125 0 Z M 37.90625 0 "/></g></g></g><g clip-path="url(#78a800599e)"><path fill="#ffffff" d="M 244.953125 226.671875 L 326.898438 226.671875 L 326.898438 365.5625 L 244.953125 365.5625 Z M 244.953125 226.671875 " fill-opacity="1" fill-rule="nonzero"/></g><g fill="#000000" fill-opacity="1"><g transform="translate(110.910276, 280.164546)"><g><path d="M 33.578125 -32.421875 L 33.578125 0 L 26.078125 0 L 26.078125 -13.296875 L 11.34375 -13.296875 L 11.34375 0 L 3.84375 0 L 3.84375 -32.421875 L 11.34375 -32.421875 L 11.34375 -19.640625 L 26.078125 -19.640625 L 26.078125 -32.421875 Z M 33.578125 -32.421875 "/></g></g></g><g fill="#000000" fill-opacity="1"><g transform="translate(164.071091, 280.164546)"><g><path d="M 19.546875 0.5625 C 16.179688 0.5625 13.144531 -0.160156 10.4375 -1.609375 C 7.738281 -3.066406 5.625 -5.066406 4.09375 -7.609375 C 2.570312 -10.160156 1.8125 -13.023438 1.8125 -16.203125 C 1.8125 -19.390625 2.570312 -22.253906 4.09375 -24.796875 C 5.625 -27.347656 7.738281 -29.347656 10.4375 -30.796875 C 13.144531 -32.242188 16.179688 -32.96875 19.546875 -32.96875 C 22.910156 -32.96875 25.9375 -32.242188 28.625 -30.796875 C 31.3125 -29.347656 33.425781 -27.347656 34.96875 -24.796875 C 36.507812 -22.253906 37.28125 -19.390625 37.28125 -16.203125 C 37.28125 -13.023438 36.507812 -10.160156 34.96875 -7.609375 C 33.425781 -5.066406 31.3125 -3.066406 28.625 -1.609375 C 25.9375 -0.160156 22.910156 0.5625 19.546875 0.5625 Z M 19.546875 -5.828125 C 21.460938 -5.828125 23.191406 -6.265625 24.734375 -7.140625 C 26.273438 -8.023438 27.484375 -9.253906 28.359375 -10.828125 C 29.242188 -12.410156 29.6875 -14.203125 29.6875 -16.203125 C 29.6875 -18.210938 29.242188 -20.003906 28.359375 -21.578125 C 27.484375 -23.148438 26.273438 -24.375 24.734375 -25.25 C 23.191406 -26.132812 21.460938 -26.578125 19.546875 -26.578125 C 17.628906 -26.578125 15.898438 -26.132812 14.359375 -25.25 C 12.816406 -24.375 11.601562 -23.148438 10.71875 -21.578125 C 9.84375 -20.003906 9.40625 -18.210938 9.40625 -16.203125 C 9.40625 -14.203125 9.84375 -12.410156 10.71875 -10.828125 C 11.601562 -9.253906 12.816406 -8.023438 14.359375 -7.140625 C 15.898438 -6.265625 17.628906 -5.828125 19.546875 -5.828125 Z M 19.546875 -5.828125 "/></g></g></g><g fill="#000000" fill-opacity="1"><g transform="translate(218.898702, 280.164546)"><g><path d="M 33.34375 0 L 33.296875 -19.453125 L 23.765625 -3.421875 L 20.375 -3.421875 L 10.890625 -19.03125 L 10.890625 0 L 3.84375 0 L 3.84375 -32.421875 L 10.046875 -32.421875 L 22.1875 -12.265625 L 34.125 -32.421875 L 40.296875 -32.421875 L 40.390625 0 Z M 33.34375 0 "/></g></g></g><g fill="#000000" fill-opacity="1"><g transform="translate(278.865576, 280.164546)"><g><path d="M 28.953125 -6.015625 L 28.953125 0 L 3.84375 0 L 3.84375 -32.421875 L 28.34375 -32.421875 L 28.34375 -26.390625 L 11.296875 -26.390625 L 11.296875 -19.359375 L 26.359375 -19.359375 L 26.359375 -13.515625 L 11.296875 -13.515625 L 11.296875 -6.015625 Z M 28.953125 -6.015625 "/></g></g></g><g fill="#000000" fill-opacity="1"><g transform="translate(110.910276, 336.346339)"><g><path d="M 33.578125 -32.421875 L 33.578125 0 L 26.078125 0 L 26.078125 -13.296875 L 11.34375 -13.296875 L 11.34375 0 L 3.84375 0 L 3.84375 -32.421875 L 11.34375 -32.421875 L 11.34375 -19.640625 L 26.078125 -19.640625 L 26.078125 -32.421875 Z M 33.578125 -32.421875 "/></g></g></g><g fill="#000000" fill-opacity="1"><g transform="translate(164.071091, 336.346339)"><g><path d="M 18.25 0.5625 C 13.613281 0.5625 10.003906 -0.71875 7.421875 -3.28125 C 4.847656 -5.84375 3.5625 -9.503906 3.5625 -14.265625 L 3.5625 -32.421875 L 11.0625 -32.421875 L 11.0625 -14.546875 C 11.0625 -8.734375 13.472656 -5.828125 18.296875 -5.828125 C 20.640625 -5.828125 22.425781 -6.53125 23.65625 -7.9375 C 24.894531 -9.34375 25.515625 -11.546875 25.515625 -14.546875 L 25.515625 -32.421875 L 32.921875 -32.421875 L 32.921875 -14.265625 C 32.921875 -9.503906 31.628906 -5.84375 29.046875 -3.28125 C 26.472656 -0.71875 22.875 0.5625 18.25 0.5625 Z M 18.25 0.5625 "/></g></g></g><g fill="#000000" fill-opacity="1"><g transform="translate(216.305912, 336.346339)"><g><path d="M 27.65625 -16.859375 C 29.5 -16.273438 30.945312 -15.296875 32 -13.921875 C 33.050781 -12.546875 33.578125 -10.851562 33.578125 -8.84375 C 33.578125 -6 32.472656 -3.8125 30.265625 -2.28125 C 28.054688 -0.757812 24.835938 0 20.609375 0 L 3.84375 0 L 3.84375 -32.421875 L 19.6875 -32.421875 C 23.632812 -32.421875 26.664062 -31.660156 28.78125 -30.140625 C 30.894531 -28.628906 31.953125 -26.578125 31.953125 -23.984375 C 31.953125 -22.410156 31.570312 -21.003906 30.8125 -19.765625 C 30.0625 -18.535156 29.007812 -17.566406 27.65625 -16.859375 Z M 11.296875 -26.765625 L 11.296875 -19.125 L 18.75 -19.125 C 20.601562 -19.125 22.007812 -19.445312 22.96875 -20.09375 C 23.925781 -20.75 24.40625 -21.707031 24.40625 -22.96875 C 24.40625 -24.238281 23.925781 -25.1875 22.96875 -25.8125 C 22.007812 -26.445312 20.601562 -26.765625 18.75 -26.765625 Z M 20.046875 -5.65625 C 22.023438 -5.65625 23.515625 -5.976562 24.515625 -6.625 C 25.523438 -7.269531 26.03125 -8.273438 26.03125 -9.640625 C 26.03125 -12.316406 24.035156 -13.65625 20.046875 -13.65625 L 11.296875 -13.65625 L 11.296875 -5.65625 Z M 20.046875 -5.65625 "/></g></g></g></svg>