<svg xmlns="http://www.w3.org/2000/svg" xmlns:xlink="http://www.w3.org/1999/xlink" width="500" zoomAndPan="magnify" viewBox="0 0 375 374.999991" height="500" preserveAspectRatio="xMidYMid meet" version="1.0"><defs><g/><clipPath id="a344fc3335"><path d="M 246 194 L 375 194 L 375 355 L 246 355 Z M 246 194 " clip-rule="nonzero"/></clipPath><clipPath id="9b842ed0eb"><path d="M 246.0625 225.785156 L 322.445312 194.242188 L 375.453125 322.617188 L 299.070312 354.15625 Z M 246.0625 225.785156 " clip-rule="nonzero"/></clipPath><clipPath id="bfe7dc16b7"><path d="M 246.0625 225.785156 L 322 194.429688 L 375 322.792969 L 299.0625 354.148438 Z M 246.0625 225.785156 " clip-rule="nonzero"/></clipPath><clipPath id="bb822ec849"><path d="M 0 267 L 144 267 L 144 375 L 0 375 Z M 0 267 " clip-rule="nonzero"/></clipPath><clipPath id="9ef1da32f9"><path d="M -13.492188 315.574219 L 24.234375 266.621094 L 144.148438 359.027344 L 106.421875 407.984375 Z M -13.492188 315.574219 " clip-rule="nonzero"/></clipPath><clipPath id="37fc23bfbb"><path d="M -13.492188 315.574219 L 23.835938 267.136719 L 143.585938 359.417969 L 106.257812 407.855469 Z M -13.492188 315.574219 " clip-rule="nonzero"/></clipPath></defs><rect x="-37.5" width="450" fill="#ffffff" y="-37.499999" height="449.999989" fill-opacity="1"/><rect x="-37.5" width="450" fill="#ffffff" y="-37.499999" height="449.999989" fill-opacity="1"/><rect x="-37.5" width="450" fill="#ffffff" y="-37.499999" height="449.999989" fill-opacity="1"/><g fill="#000000" fill-opacity="1"><g transform="translate(55.044013, 367.296803)"><g><path d="M 37.421875 -6.015625 L -12.234375 -315.109375 L 25.203125 -321.125 L 47.3125 -183.484375 L 212.109375 -209.953125 L 190 -347.59375 L 227.453125 -353.609375 L 277.109375 -44.515625 L 239.65625 -38.5 L 217.453125 -176.75 L 52.65625 -150.28125 L 74.859375 -12.03125 Z M 37.421875 -6.015625 "/></g></g></g><g clip-path="url(#a344fc3335)"><g clip-path="url(#9b842ed0eb)"><g clip-path="url(#bfe7dc16b7)"><path fill="#ffffff" d="M 246.0625 225.785156 L 321.800781 194.507812 L 374.808594 322.882812 L 299.070312 354.15625 Z M 246.0625 225.785156 " fill-opacity="1" fill-rule="nonzero"/></g></g></g><g fill="#000000" fill-opacity="1"><g transform="translate(181.375867, 326.259287)"><g><path d="M 13.703125 -44.625 L 29.390625 -16.25 L 22.828125 -12.609375 L 16.390625 -24.25 L 3.484375 -17.125 L 9.921875 -5.484375 L 3.359375 -1.859375 L -12.328125 -30.234375 L -5.765625 -33.859375 L 0.421875 -22.671875 L 13.328125 -29.796875 L 7.140625 -40.984375 Z M 13.703125 -44.625 "/></g></g></g><g fill="#000000" fill-opacity="1"><g transform="translate(227.903292, 300.544105)"><g><path d="M 17.375 -8.953125 C 14.425781 -7.328125 11.414062 -6.5 8.34375 -6.46875 C 5.28125 -6.4375 2.46875 -7.164062 -0.09375 -8.65625 C -2.65625 -10.144531 -4.707031 -12.28125 -6.25 -15.0625 C -7.789062 -17.84375 -8.507812 -20.71875 -8.40625 -23.6875 C -8.300781 -26.65625 -7.414062 -29.425781 -5.75 -32 C -4.09375 -34.582031 -1.789062 -36.6875 1.15625 -38.3125 C 4.101562 -39.9375 7.101562 -40.765625 10.15625 -40.796875 C 13.207031 -40.828125 16.019531 -40.097656 18.59375 -38.609375 C 21.175781 -37.128906 23.238281 -35 24.78125 -32.21875 C 26.320312 -29.4375 27.03125 -26.554688 26.90625 -23.578125 C 26.789062 -20.609375 25.910156 -17.832031 24.265625 -15.25 C 22.617188 -12.675781 20.320312 -10.578125 17.375 -8.953125 Z M 14.296875 -14.546875 C 15.972656 -15.472656 17.269531 -16.691406 18.1875 -18.203125 C 19.113281 -19.722656 19.578125 -21.390625 19.578125 -23.203125 C 19.585938 -25.015625 19.109375 -26.796875 18.140625 -28.546875 C 17.171875 -30.304688 15.921875 -31.660156 14.390625 -32.609375 C 12.859375 -33.554688 11.203125 -34.039062 9.421875 -34.0625 C 7.648438 -34.09375 5.925781 -33.644531 4.25 -32.71875 C 2.570312 -31.789062 1.269531 -30.566406 0.34375 -29.046875 C -0.570312 -27.535156 -1.035156 -25.878906 -1.046875 -24.078125 C -1.054688 -22.273438 -0.578125 -20.492188 0.390625 -18.734375 C 1.359375 -16.984375 2.609375 -15.628906 4.140625 -14.671875 C 5.679688 -13.710938 7.335938 -13.21875 9.109375 -13.1875 C 10.890625 -13.164062 12.617188 -13.617188 14.296875 -14.546875 Z M 14.296875 -14.546875 "/></g></g></g><g fill="#000000" fill-opacity="1"><g transform="translate(275.889531, 274.022654)"><g><path d="M 29.1875 -16.125 L 19.734375 -33.140625 L 19.140625 -14.5 L 16.171875 -12.859375 L 0.328125 -21.921875 L 9.53125 -5.265625 L 3.359375 -1.859375 L -12.328125 -30.234375 L -6.890625 -33.234375 L 13.484375 -21.46875 L 14.171875 -44.875 L 19.578125 -47.875 L 35.34375 -19.53125 Z M 29.1875 -16.125 "/></g></g></g><g fill="#000000" fill-opacity="1"><g transform="translate(328.373757, 245.015216)"><g><path d="M 22.4375 -19.265625 L 25.34375 -14 L 3.359375 -1.859375 L -12.328125 -30.234375 L 9.125 -42.078125 L 12.046875 -36.796875 L -2.875 -28.5625 L 0.53125 -22.40625 L 13.703125 -29.6875 L 16.53125 -24.578125 L 3.359375 -17.296875 L 6.984375 -10.734375 Z M 22.4375 -19.265625 "/></g></g></g><g fill="#000000" fill-opacity="1"><g transform="translate(220.332362, 338.082289)"><g><path d="M 32.484375 -33.515625 L 33.5625 -1.109375 L 26.0625 -0.859375 L 25.625 -14.15625 L 10.90625 -13.671875 L 11.34375 -0.375 L 3.84375 -0.125 L 2.765625 -32.53125 L 10.265625 -32.78125 L 10.6875 -20 L 25.40625 -20.484375 L 24.984375 -33.265625 Z M 32.484375 -33.515625 "/></g></g></g><g fill="#000000" fill-opacity="1"><g transform="translate(273.46391, 336.3186)"><g><path d="M 18.25 -0.046875 C 13.625 0.109375 9.976562 -1.050781 7.3125 -3.53125 C 4.65625 -6.007812 3.25 -9.625 3.09375 -14.375 L 2.484375 -32.53125 L 9.984375 -32.765625 L 10.578125 -14.890625 C 10.773438 -9.085938 13.28125 -6.269531 18.09375 -6.4375 C 20.4375 -6.507812 22.203125 -7.269531 23.390625 -8.71875 C 24.578125 -10.164062 25.117188 -12.382812 25.015625 -15.375 L 24.421875 -33.25 L 31.828125 -33.5 L 32.4375 -15.34375 C 32.59375 -10.59375 31.421875 -6.890625 28.921875 -4.234375 C 26.429688 -1.585938 22.875 -0.191406 18.25 -0.046875 Z M 18.25 -0.046875 "/></g></g></g><g fill="#000000" fill-opacity="1"><g transform="translate(325.669974, 334.585633)"><g><path d="M 27.078125 -17.765625 C 28.941406 -17.242188 30.421875 -16.3125 31.515625 -14.96875 C 32.617188 -13.632812 33.203125 -11.960938 33.265625 -9.953125 C 33.359375 -7.109375 32.328125 -4.882812 30.171875 -3.28125 C 28.015625 -1.6875 24.820312 -0.820312 20.59375 -0.6875 L 3.84375 -0.125 L 2.765625 -32.53125 L 18.59375 -33.0625 C 22.539062 -33.1875 25.597656 -32.523438 27.765625 -31.078125 C 29.929688 -29.640625 31.054688 -27.625 31.140625 -25.03125 C 31.191406 -23.457031 30.859375 -22.039062 30.140625 -20.78125 C 29.429688 -19.519531 28.410156 -18.515625 27.078125 -17.765625 Z M 10.40625 -27.125 L 10.65625 -19.484375 L 18.09375 -19.734375 C 19.945312 -19.796875 21.34375 -20.164062 22.28125 -20.84375 C 23.21875 -21.53125 23.664062 -22.503906 23.625 -23.765625 C 23.582031 -25.035156 23.070312 -25.96875 22.09375 -26.5625 C 21.113281 -27.164062 19.695312 -27.4375 17.84375 -27.375 Z M 19.84375 -6.328125 C 21.820312 -6.390625 23.300781 -6.757812 24.28125 -7.4375 C 25.269531 -8.113281 25.742188 -9.132812 25.703125 -10.5 C 25.609375 -13.175781 23.566406 -14.453125 19.578125 -14.328125 L 10.84375 -14.03125 L 11.109375 -6.03125 Z M 19.84375 -6.328125 "/></g></g></g><g clip-path="url(#bb822ec849)"><g clip-path="url(#9ef1da32f9)"><g clip-path="url(#37fc23bfbb)"><path fill="#ffffff" d="M -13.492188 315.574219 L 23.8125 267.171875 L 143.722656 359.578125 L 106.421875 407.984375 Z M -13.492188 315.574219 " fill-opacity="1" fill-rule="nonzero"/></g></g></g></svg>